<svg width="81" height="27" viewBox="0 0 81 27" fill="none" xmlns="http://www.w3.org/2000/svg"><mask id="mask0" style="mask-type:alpha" maskUnits="userSpaceOnUse" x="0" y="0" width="74" height="27"><path d="M0.0320435 0.214577H73.8197V26.8517H0.0320435V0.214577Z" fill="white"></path></mask><g mask="url(#mask0)"><path fill-rule="evenodd" clip-rule="evenodd" d="M66.8068 0.214577H60.1177L67.13 26.8009H73.8197L66.8068 0.214577ZM48.24 0.214577L55.2523 26.8009H61.942L54.9292 0.214577H48.24ZM37.1496 12.4922H32.8119V6.07114H37.1496C39.6223 6.07114 40.7492 7.32994 40.7492 9.28141C40.7492 11.234 39.6223 12.4922 37.1496 12.4922ZM47.5634 9.28141C47.5634 3.46864 43.614 0.214577 37.8882 0.214577H25.9134V26.8517H32.8119V18.0454H35.2425L40.7952 26.8517H48.5172L42.2681 17.3079C45.5216 16.0929 47.5634 13.3163 47.5634 9.28141ZM9.71786 20.822H6.8526V6.20199H9.71786C14.1405 6.20199 16.6132 9.02186 16.6132 13.5336C16.6132 18.0022 14.1405 20.822 9.71786 20.822ZM10.0639 0.214577H0V26.8517H10.0639C18.4354 26.8517 23.5117 21.6456 23.5117 13.5336C23.5117 5.42065 18.4354 0.214577 10.0639 0.214577Z" fill="white"></path></g><path fill-rule="evenodd" clip-rule="evenodd" d="M80.832 0.214577H72.8098L76.8206 15.4221L80.832 0.214577Z" fill="#00D4C1"></path></svg>